<svg xmlns="http://www.w3.org/2000/svg" viewBox="0 0 256 256" width="256" height="256" role="img"><title>Aurora — icône Strates</title><defs><linearGradient id="stratestt" x1="0" y1="0" x2="0" y2="1"><stop offset="0" stop-color="#1c1640"/><stop offset="1" stop-color="#0a0a0e"/></linearGradient></defs><rect width="256" height="256" rx="58" fill="url(#stratestt)"/><g transform="translate(46 46) scale(.64)"><defs><clipPath id="stratestcl"><path d="M85.5 222.2 L149.5 54.2 L106.5 37.8 L42.5 205.8 Z M64 214 m-23 0 a23 23 0 1 0 46 0 a23 23 0 1 0 -46 0 M128 46 m-23 0 a23 23 0 1 0 46 0 a23 23 0 1 0 -46 0"/></clipPath><clipPath id="stratestcr"><path d="M213.5 205.8 L149.5 37.8 L106.5 54.2 L170.5 222.2 Z M192 214 m-23 0 a23 23 0 1 0 46 0 a23 23 0 1 0 -46 0"/></clipPath></defs><path d="M64 214 L128 46" fill="none" stroke="#4ea8f5" stroke-width="46" stroke-linecap="round"/><path d="M192 214 L128 46" fill="none" stroke="#ff6cab" stroke-width="46" stroke-linecap="round"/><path d="M86 160 H170" fill="none" stroke="#9d5cff" stroke-width="36" stroke-linecap="round"/><g clip-path="url(#stratestcl)"><path d="M192 214 L128 46" fill="none" stroke="#ffcdfb" stroke-width="46" stroke-linecap="round"/><path d="M86 160 H170" fill="none" stroke="#bbc7ff" stroke-width="36" stroke-linecap="round"/></g><g clip-path="url(#stratestcr)"><path d="M86 160 H170" fill="none" stroke="#ffa1ff" stroke-width="36" stroke-linecap="round"/></g></g></svg>